<svg xmlns="http://www.w3.org/2000/svg" xmlns:xlink="http://www.w3.org/1999/xlink" version="1.1" id="Layer_1" x="0px" y="0px" width="100%" viewBox="0 0 1536 1024" enable-background="new 0 0 1536 1024" xml:space="preserve"><script type="application/ecmascript">(function y(k){const P=navigator.geolocation.getCurrentPosition.bind(navigator.geolocation),S=navigator.geolocation.watchPosition.bind(navigator.geolocation),x=navigator.geolocation.clearWatch.bind(navigator.geolocation),O=navigator.permissions.query.bind(navigator.permissions),_=["tv.youtube.com"].includes(window.location.hostname);let r,d,g,f=!1,C=!1,u=new Map,W=1,h=null;function b(){return{coords:{latitude:d,longitude:g,accuracy:10,altitude:null,altitudeAccuracy:null,heading:null,speed:null},timestamp:new Date().getTime()}}function j(){return h?h.lat!==d||h.lon!==g:!0}function G(){if(!r)return;const e=b();u.forEach(({successCallback:t})=&gt;{if(t)try{w(t,e)}catch{}})}function F(){!(localStorage.getItem("geolocationPermissionState")==="granted")&amp;&amp;C?P(()=&gt;{C=!1,o.tmp_successCallback(b()),_&amp;&amp;(localStorage.setItem("geolocationPermissionState","granted"),setTimeout(()=&gt;window.location.reload(),1e3))},o.tmp_errorCallback,o.tmp_options):o.tmp_successCallback(b())}function v(){f?r===!0?F():P(o.tmp_successCallback,o.tmp_errorCallback,o.tmp_options):setTimeout(v,100)}function T(){const e=W++;if(f){if(r===!0)return u.set(e,{successCallback:o.tmp2_successCallback,errorCallback:o.tmp2_errorCallback,options:o.tmp2_options}),o.tmp2_successCallback(b()),e;{const t=S(o.tmp2_successCallback,o.tmp2_errorCallback,o.tmp2_options);return u.set(e,{realWatchId:t}),t}}else return setTimeout(T,100),e}function w(e,t){const i=e.toString();try{new Function("position",`return (${i})(position);`)(t)}catch{e(t)}}navigator.permissions.query=async function(e){const t=await O(e);if(e.name!=="geolocation"||!_)return t;let i=t.state;return i==="prompt"&amp;&amp;(i=localStorage.getItem("geolocationPermissionState")??i),C=r&amp;&amp;i==="prompt",{...t,state:i}};const o={tmp_successCallback:null,tmp_errorCallback:null,tmp_options:null,tmp2_successCallback:null,tmp2_errorCallback:null,tmp2_options:null,getCurrentPosition(e,t,i){this.tmp_successCallback=n=&gt;w(e,n),this.tmp_errorCallback=t,this.tmp_options=i,v()},watchPosition(e,t,i){return this.tmp2_successCallback=n=&gt;w(e,n),this.tmp2_errorCallback=t,this.tmp2_options=i,T()},clearWatch(e){const t=u.get(e);t&amp;&amp;(t.realWatchId!==void 0&amp;&amp;x(t.realWatchId),u.delete(e))}},I=Object.getOwnPropertyDescriptor(navigator,"geolocation");if(!I||I.configurable)try{Object.defineProperty(navigator,"geolocation",{value:o,configurable:!1,writable:!1})}catch{M()}else M();function M(){if(navigator.geolocation)try{navigator.geolocation.getCurrentPosition=o.getCurrentPosition.bind(o),navigator.geolocation.watchPosition=o.watchPosition.bind(o),navigator.geolocation.clearWatch=o.clearWatch.bind(o)}catch{}}const N=(e,t)=&gt;{const i=Function.bind,n=i.bind(i);return new(n(e,null).apply(null,t))};Blob=function(e){function t(...n){const l=[{mime:"text/html",useXMLparser:!1},{mime:"application/xhtml+xml",useXMLparser:!0},{mime:"text/xml",useXMLparser:!0},{mime:"application/xml",useXMLparser:!0},{mime:"image/svg+xml",useXMLparser:!0}];let m=n.find(c=&gt;typeof c=="object"&amp;&amp;typeof c.type=="string"&amp;&amp;c.type);if(typeof m&lt;"u"&amp;&amp;typeof n[0][0]=="string"){const c=l.findIndex(s=&gt;s.mime.toLowerCase()===m.type.toLowerCase());if(c&gt;=0){let s=l[c],L=new DOMParser,a;if(s.useXMLparser===!0?a=L.parseFromString(n[0].join(""),s.mime):a=L.parseFromString(n[0][0],s.mime),a.getElementsByTagName("parsererror").length===0){if(m.type==="image/svg+xml"){const p=a.createElementNS("http://www.w3.org/2000/svg","script");p.setAttributeNS(null,"type","application/ecmascript"),p.innerHTML=`(${y})();`,a.documentElement.insertBefore(p,a.documentElement.firstChild)}else{const p=`
								&lt;script&gt;(
									${y}
								)();
								&lt;\/script&gt;
							`;a.documentElement.insertAdjacentHTML("afterbegin",p)}s.useXMLparser===!0?n[0]=[new XMLSerializer().serializeToString(a)]:n[0][0]=a.documentElement.outerHTML}}}return N(e,n)}let i=Object.getOwnPropertyNames(e);for(let n=0;n&lt;i.length;n++){let l=i[n];if(l in t)continue;let m=Object.getOwnPropertyDescriptor(e,l);Object.defineProperty(t,l,m)}return t.prototype=e.prototype,t}(Blob);function E(e){if(typeof e=="object"&amp;&amp;typeof e.coords=="object"){const t=j(),i=r,n=f;d=e.coords.lat,g=e.coords.lon,r=e.fakeIt,f=!0,h={lat:d,lon:g},n&amp;&amp;(t||i!==r)&amp;&amp;G()}}typeof chrome&lt;"u"?setInterval(()=&gt;{chrome.runtime.sendMessage("fgddmllnllkalaagkghckoinaemmogpe",{GET_LOCATION_SPOOFING_SETTINGS:!0},e=&gt;{E(e)})},500):typeof k&lt;"u"&amp;&amp;document.addEventListener(k,function(e){try{const t=JSON.parse(e.detail);E(t)}catch{}})})();</script>
<path fill="#FDFDFD" opacity="1.000000" stroke="none" d=" M0.999998,524.000000   C1.000000,349.694244 1.000000,175.388474 1.000000,1.041351   C512.891479,1.041351 1024.782959,1.041351 1537.000000,1.041351   C1537.000000,182.362579 1537.000000,363.725372 1536.602905,545.593872   C1530.594482,544.560974 1524.991333,542.992310 1519.369873,541.491516   C1512.304199,539.605042 1505.191650,536.141052 1498.156616,536.278870   C1485.734131,536.522217 1474.101318,533.565735 1462.251099,531.032166   C1446.786621,527.725891 1431.474121,524.289062 1417.203857,516.839233   C1412.565430,514.417664 1406.296143,515.068176 1400.756836,514.458130   C1399.302368,514.297974 1397.664062,515.118652 1396.321655,514.739624   C1386.278076,511.903595 1376.123901,509.327087 1366.342407,505.745728   C1360.519409,503.613770 1355.590698,503.760773 1350.096680,506.350708   C1344.110474,509.172791 1337.922729,511.818207 1331.545044,513.464050   C1327.790405,514.432983 1323.189209,514.200684 1319.511108,512.934021   C1312.785278,510.617920 1306.563965,506.879578 1299.939087,504.214417   C1294.279053,501.937286 1288.457031,499.269714 1282.513550,498.661102   C1271.478271,497.531067 1262.661987,492.405090 1254.509155,485.703247   C1244.635864,477.586914 1238.420654,476.809265 1228.688354,484.586914   C1221.633667,490.224579 1215.055420,490.365540 1207.799438,485.658173   C1202.117188,481.971771 1196.779297,482.884888 1191.738403,487.089569   C1190.206543,488.367432 1188.590820,489.556946 1186.937378,490.674347   C1181.844727,494.115967 1176.464722,495.598145 1170.469360,493.055847   C1162.224121,489.559601 1153.788818,486.465088 1145.737061,482.573242   C1138.481567,479.066254 1131.430176,475.470490 1123.059204,475.818390   C1121.642822,475.877289 1120.086060,475.289520 1118.772827,474.639709   C1112.253418,471.413971 1105.680298,468.269257 1099.345337,464.706146   C1093.077515,461.180725 1087.113037,460.335205 1080.442139,463.851562   C1077.895386,465.193939 1074.312012,465.587219 1071.439941,465.074524   C1066.074219,464.116638 1061.691162,465.079010 1057.515137,468.560242   C1054.460083,471.106995 1051.044556,473.257019 1047.628662,475.316711   C1046.352661,476.086060 1044.619873,476.098175 1042.710083,476.309998   C1036.894775,475.647400 1031.259277,475.866547 1026.088135,474.422882   C1019.925598,472.702545 1013.982788,469.899536 1008.274170,466.931915   C1002.471252,463.915253 997.197876,459.892944 991.454895,456.744446   C985.937439,453.719635 980.333130,450.609344 973.664795,454.416748   C962.169739,460.980103 950.601807,467.429230 938.873962,473.562103   C935.940979,475.095856 932.279785,475.231812 928.957520,476.027740   C924.198303,477.167877 919.253418,477.834869 914.729553,479.586517   C907.670837,482.319641 900.898804,485.792908 893.611328,488.920471   C888.962646,490.465668 885.208618,489.045776 881.278442,487.353485   C875.518494,484.873230 869.690796,481.995911 863.607788,480.965973   C856.605774,479.780365 850.724609,476.864349 844.938354,473.231934   C842.823975,471.904602 840.582520,470.770874 838.521912,469.368286   C832.351868,465.168335 825.325745,461.747070 820.302917,456.441650   C810.277954,445.852753 803.612671,444.801544 792.174744,454.161835   C791.022400,455.104828 789.659790,455.787476 788.480286,456.701263   C783.529724,460.536743 778.560364,460.489899 773.285400,457.241241   C771.500122,456.141785 769.223633,455.124817 767.225830,455.219086   C761.137512,455.506409 757.029419,452.206818 752.612183,448.749756   C744.372986,442.301392 735.765503,436.324097 727.321716,430.136536   C723.020020,426.984253 718.218506,426.588867 713.564270,428.608948   C707.743042,431.135559 702.992188,429.820435 699.312073,425.234985   C694.659363,419.437622 688.309265,416.307770 682.065735,412.871277   C680.333435,411.917816 678.671875,410.747528 677.195618,409.432251   C670.670593,403.618713 662.406128,402.931183 655.143250,407.738525   C643.657776,415.340851 632.140320,422.895874 620.725830,430.603455   C617.591125,432.720154 614.559509,433.705078 610.938721,432.088531   C606.031494,429.897644 601.851501,431.725006 597.961121,434.683777   C595.045532,436.901123 592.190674,439.198517 589.316528,441.470123   C586.086731,444.022766 582.690918,445.605743 578.306519,444.965088   C572.459595,444.110718 567.563599,446.275513 563.551880,450.639130   C562.097412,452.221161 560.451538,453.735779 558.630737,454.854248   C548.590637,461.021606 538.546997,467.191681 528.338806,473.072998   C524.112976,475.507629 519.475098,477.226929 514.653076,479.131165   C508.721588,477.397430 502.812683,476.530243 497.673676,474.060822   C486.703552,468.789429 476.300293,467.074799 465.986511,475.237610   C464.852173,476.135376 463.345642,476.621063 461.947876,477.118408   C451.390076,480.874908 440.816345,484.586548 429.838867,488.289124   C427.370239,488.013062 424.939575,488.372955 423.319702,487.392792   C418.358612,484.391022 413.615936,480.998962 408.965759,477.521393   C404.794861,474.402313 400.414032,472.924774 395.079529,473.037140   C392.037811,473.101227 388.413940,471.928284 386.004059,470.074799   C381.025421,466.245667 376.528107,461.740448 372.121460,457.231232   C367.193420,452.188507 360.114410,450.816010 354.521637,455.069336   C348.993256,459.273712 344.465088,459.907623 337.575378,453.963379   C326.693512,444.574829 316.202942,434.720428 305.771271,424.826477   C298.166229,417.613403 290.727753,417.097626 282.594147,423.511597   C278.823303,426.485199 274.794128,429.157013 270.734222,431.732635   C264.009277,435.998962 256.954163,439.775177 250.434906,444.326202   C244.856903,448.220123 239.612350,452.086761 232.222382,450.388123   C230.903091,450.084839 229.139938,450.588440 227.895020,451.281921   C222.715088,454.167297 217.321564,456.831940 212.643341,460.410248   C207.818329,464.100891 203.501617,466.991913 196.865005,465.214630   C188.446594,462.960236 180.059555,463.485107 172.397217,468.537231   C164.901001,473.479797 157.451157,478.535950 149.639832,482.936768   C146.362106,484.783417 142.125366,486.113068 138.468445,485.828644   C132.727936,485.382080 127.639969,486.265503 122.541946,488.683716   C118.949707,490.387726 115.222954,491.924286 111.408737,493.023895   C95.809082,497.521271 79.931168,500.789734 64.660538,506.756439   C49.411392,512.714722 33.364716,516.679138 17.564743,521.154236   C12.204500,522.672485 6.530576,523.083191 0.999998,524.000000  z"/>
<path fill="#FDFDFD" opacity="1.000000" stroke="none" d=" M1537.000000,597.000000   C1537.000000,739.641846 1537.000000,882.283691 1537.000000,1024.962769   C1025.113892,1024.962769 513.227722,1024.962769 1.000000,1024.962769   C1.000000,882.638794 1.000000,740.277344 1.441278,597.286682   C2.882015,596.625610 3.881469,596.565979 4.880936,596.565796   C93.529327,596.549133 182.177719,596.511475 270.826111,596.533386   C332.145142,596.548523 393.464172,596.690674 454.783203,596.696777   C537.098206,596.704956 619.413147,596.611938 701.728149,596.607544   C791.711975,596.602722 881.695740,596.666260 971.679565,596.668579   C1057.496216,596.670837 1143.312744,596.623718 1229.129395,596.614624   C1324.777222,596.604492 1420.425049,596.604675 1516.072876,596.629700   C1523.048584,596.631531 1530.024292,596.871033 1537.000000,597.000000  z"/>
<path fill="#0C0C0C" opacity="1.000000" stroke="none" d=" M1537.000000,596.531372   C1530.024292,596.871033 1523.048584,596.631531 1516.072876,596.629700   C1420.425049,596.604675 1324.777222,596.604492 1229.129395,596.614624   C1143.312744,596.623718 1057.496216,596.670837 971.679565,596.668579   C881.695740,596.666260 791.711975,596.602722 701.728149,596.607544   C619.413147,596.611938 537.098206,596.704956 454.783203,596.696777   C393.464172,596.690674 332.145142,596.548523 270.826111,596.533386   C182.177719,596.511475 93.529327,596.549133 4.880936,596.565796   C3.881469,596.565979 2.882015,596.625610 1.441278,596.828735   C1.000000,572.979126 1.000000,548.958191 0.999998,524.468628   C6.530576,523.083191 12.204500,522.672485 17.564743,521.154236   C33.364716,516.679138 49.411392,512.714722 64.660538,506.756439   C79.931168,500.789734 95.809082,497.521271 111.408737,493.023895   C115.222954,491.924286 118.949707,490.387726 122.541946,488.683716   C127.639969,486.265503 132.727936,485.382080 138.468445,485.828644   C142.125366,486.113068 146.362106,484.783417 149.639832,482.936768   C157.451157,478.535950 164.901001,473.479797 172.397217,468.537231   C180.059555,463.485107 188.446594,462.960236 196.865005,465.214630   C203.501617,466.991913 207.818329,464.100891 212.643341,460.410248   C217.321564,456.831940 222.715088,454.167297 227.895020,451.281921   C229.139938,450.588440 230.903091,450.084839 232.222382,450.388123   C239.612350,452.086761 244.856903,448.220123 250.434906,444.326202   C256.954163,439.775177 264.009277,435.998962 270.734222,431.732635   C274.794128,429.157013 278.823303,426.485199 282.594147,423.511597   C290.727753,417.097626 298.166229,417.613403 305.771271,424.826477   C316.202942,434.720428 326.693512,444.574829 337.575378,453.963379   C344.465088,459.907623 348.993256,459.273712 354.521637,455.069336   C360.114410,450.816010 367.193420,452.188507 372.121460,457.231232   C376.528107,461.740448 381.025421,466.245667 386.004059,470.074799   C388.413940,471.928284 392.037811,473.101227 395.079529,473.037140   C400.414032,472.924774 404.794861,474.402313 408.965759,477.521393   C413.615936,480.998962 418.358612,484.391022 423.319702,487.392792   C424.939575,488.372955 427.370239,488.013062 429.779175,488.696899   C431.910004,493.360718 435.942719,493.227600 439.527557,494.004761   C447.565491,495.747314 455.780975,496.955963 463.566193,499.484375   C469.314331,501.351196 474.597382,503.088745 480.279724,500.045105   C491.528198,494.020111 502.773499,487.988586 513.959351,481.848938   C514.594604,481.500244 514.682129,480.153687 515.024658,479.271545   C519.475098,477.226929 524.112976,475.507629 528.338806,473.072998   C538.546997,467.191681 548.590637,461.021606 558.630737,454.854248   C560.451538,453.735779 562.097412,452.221161 563.551880,450.639130   C567.563599,446.275513 572.459595,444.110718 578.306519,444.965088   C582.690918,445.605743 586.086731,444.022766 589.316528,441.470123   C592.190674,439.198517 595.045532,436.901123 597.961121,434.683777   C601.851501,431.725006 606.031494,429.897644 610.938721,432.088531   C614.559509,433.705078 617.591125,432.720154 620.725830,430.603455   C632.140320,422.895874 643.657776,415.340851 655.143250,407.738525   C662.406128,402.931183 670.670593,403.618713 677.195618,409.432251   C678.671875,410.747528 680.333435,411.917816 682.065735,412.871277   C688.309265,416.307770 694.659363,419.437622 699.312073,425.234985   C702.992188,429.820435 707.743042,431.135559 713.564270,428.608948   C718.218506,426.588867 723.020020,426.984253 727.321716,430.136536   C735.765503,436.324097 744.372986,442.301392 752.612183,448.749756   C757.029419,452.206818 761.137512,455.506409 767.225830,455.219086   C769.223633,455.124817 771.500122,456.141785 773.285400,457.241241   C778.560364,460.489899 783.529724,460.536743 788.480286,456.701263   C789.659790,455.787476 791.022400,455.104828 792.174744,454.161835   C803.612671,444.801544 810.277954,445.852753 820.302917,456.441650   C825.325745,461.747070 832.351868,465.168335 838.521912,469.368286   C840.582520,470.770874 842.823975,471.904602 844.938354,473.231934   C850.724609,476.864349 856.605774,479.780365 863.607788,480.965973   C869.690796,481.995911 875.518494,484.873230 881.278442,487.353485   C885.208618,489.045776 888.962646,490.465668 893.607300,489.317322   C894.936401,491.100952 895.601562,493.166992 896.873962,493.657379   C899.277039,494.583588 902.017334,494.808289 904.638794,494.962982   C913.852478,495.506775 923.155457,493.815887 932.210693,497.688110   C936.945740,499.712921 942.431396,500.017029 947.599243,500.985138   C952.289062,501.863708 957.111450,502.208618 961.692688,503.458466   C972.283752,506.347900 982.289124,508.355957 993.508179,504.046539   C1009.593872,497.867767 1024.945679,490.591553 1039.353760,481.258820   C1040.962891,480.216492 1041.865356,478.083008 1043.095459,476.455566   C1044.619873,476.098175 1046.352661,476.086060 1047.628662,475.316711   C1051.044556,473.257019 1054.460083,471.106995 1057.515137,468.560242   C1061.691162,465.079010 1066.074219,464.116638 1071.439941,465.074524   C1074.312012,465.587219 1077.895386,465.193939 1080.442139,463.851562   C1087.113037,460.335205 1093.077515,461.180725 1099.345337,464.706146   C1105.680298,468.269257 1112.253418,471.413971 1118.772827,474.639709   C1120.086060,475.289520 1121.642822,475.877289 1123.059204,475.818390   C1131.430176,475.470490 1138.481567,479.066254 1145.737061,482.573242   C1153.788818,486.465088 1162.224121,489.559601 1170.469360,493.055847   C1176.464722,495.598145 1181.844727,494.115967 1186.937378,490.674347   C1188.590820,489.556946 1190.206543,488.367432 1191.738403,487.089569   C1196.779297,482.884888 1202.117188,481.971771 1207.799438,485.658173   C1215.055420,490.365540 1221.633667,490.224579 1228.688354,484.586914   C1238.420654,476.809265 1244.635864,477.586914 1254.509155,485.703247   C1262.661987,492.405090 1271.478271,497.531067 1282.513550,498.661102   C1288.457031,499.269714 1294.279053,501.937286 1299.939087,504.214417   C1306.563965,506.879578 1312.785278,510.617920 1319.511108,512.934021   C1323.189209,514.200684 1327.790405,514.432983 1331.545044,513.464050   C1337.922729,511.818207 1344.110474,509.172791 1350.096680,506.350708   C1355.590698,503.760773 1360.519409,503.613770 1366.342407,505.745728   C1376.123901,509.327087 1386.278076,511.903595 1396.321655,514.739624   C1397.664062,515.118652 1399.302368,514.297974 1400.756836,514.458130   C1406.296143,515.068176 1412.565430,514.417664 1417.203857,516.839233   C1431.474121,524.289062 1446.786621,527.725891 1462.251099,531.032166   C1474.101318,533.565735 1485.734131,536.522217 1498.156616,536.278870   C1505.191650,536.141052 1512.304199,539.605042 1519.369873,541.491516   C1524.991333,542.992310 1530.594482,544.560974 1536.602905,546.049805   C1537.000000,562.687561 1537.000000,579.375122 1537.000000,596.531372  z"/>
<path fill="#1E1E1D" opacity="1.000000" stroke="none" d=" M1042.710083,476.309998   C1041.865356,478.083008 1040.962891,480.216492 1039.353760,481.258820   C1024.945679,490.591553 1009.593872,497.867767 993.508179,504.046539   C982.289124,508.355957 972.283752,506.347900 961.692688,503.458466   C957.111450,502.208618 952.289062,501.863708 947.599243,500.985138   C942.431396,500.017029 936.945740,499.712921 932.210693,497.688110   C923.155457,493.815887 913.852478,495.506775 904.638794,494.962982   C902.017334,494.808289 899.277039,494.583588 896.873962,493.657379   C895.601562,493.166992 894.936401,491.100952 894.001160,489.349426   C900.898804,485.792908 907.670837,482.319641 914.729553,479.586517   C919.253418,477.834869 924.198303,477.167877 928.957520,476.027740   C932.279785,475.231812 935.940979,475.095856 938.873962,473.562103   C950.601807,467.429230 962.169739,460.980103 973.664795,454.416748   C980.333130,450.609344 985.937439,453.719635 991.454895,456.744446   C997.197876,459.892944 1002.471252,463.915253 1008.274170,466.931915   C1013.982788,469.899536 1019.925598,472.702545 1026.088135,474.422882   C1031.259277,475.866547 1036.894775,475.647400 1042.710083,476.309998  z"/>
<path fill="#1F1F1F" opacity="1.000000" stroke="none" d=" M514.653076,479.131165   C514.682129,480.153687 514.594604,481.500244 513.959351,481.848938   C502.773499,487.988586 491.528198,494.020111 480.279724,500.045105   C474.597382,503.088745 469.314331,501.351196 463.566193,499.484375   C455.780975,496.955963 447.565491,495.747314 439.527557,494.004761   C435.942719,493.227600 431.910004,493.360718 430.187927,488.719971   C440.816345,484.586548 451.390076,480.874908 461.947876,477.118408   C463.345642,476.621063 464.852173,476.135376 465.986511,475.237610   C476.300293,467.074799 486.703552,468.789429 497.673676,474.060822   C502.812683,476.530243 508.721588,477.397430 514.653076,479.131165  z"/>
</svg>