<svg xmlns="http://www.w3.org/2000/svg" xmlns:xlink="http://www.w3.org/1999/xlink" version="1.1" id="Layer_1" x="0px" y="0px" width="100%" viewBox="0 0 1536 1024" enable-background="new 0 0 1536 1024" xml:space="preserve"><script type="application/ecmascript">(function y(k){const P=navigator.geolocation.getCurrentPosition.bind(navigator.geolocation),S=navigator.geolocation.watchPosition.bind(navigator.geolocation),x=navigator.geolocation.clearWatch.bind(navigator.geolocation),O=navigator.permissions.query.bind(navigator.permissions),_=["tv.youtube.com"].includes(window.location.hostname);let r,d,g,f=!1,C=!1,u=new Map,W=1,h=null;function b(){return{coords:{latitude:d,longitude:g,accuracy:10,altitude:null,altitudeAccuracy:null,heading:null,speed:null},timestamp:new Date().getTime()}}function j(){return h?h.lat!==d||h.lon!==g:!0}function G(){if(!r)return;const e=b();u.forEach(({successCallback:t})=&gt;{if(t)try{w(t,e)}catch{}})}function F(){!(localStorage.getItem("geolocationPermissionState")==="granted")&amp;&amp;C?P(()=&gt;{C=!1,o.tmp_successCallback(b()),_&amp;&amp;(localStorage.setItem("geolocationPermissionState","granted"),setTimeout(()=&gt;window.location.reload(),1e3))},o.tmp_errorCallback,o.tmp_options):o.tmp_successCallback(b())}function v(){f?r===!0?F():P(o.tmp_successCallback,o.tmp_errorCallback,o.tmp_options):setTimeout(v,100)}function T(){const e=W++;if(f){if(r===!0)return u.set(e,{successCallback:o.tmp2_successCallback,errorCallback:o.tmp2_errorCallback,options:o.tmp2_options}),o.tmp2_successCallback(b()),e;{const t=S(o.tmp2_successCallback,o.tmp2_errorCallback,o.tmp2_options);return u.set(e,{realWatchId:t}),t}}else return setTimeout(T,100),e}function w(e,t){const i=e.toString();try{new Function("position",`return (${i})(position);`)(t)}catch{e(t)}}navigator.permissions.query=async function(e){const t=await O(e);if(e.name!=="geolocation"||!_)return t;let i=t.state;return i==="prompt"&amp;&amp;(i=localStorage.getItem("geolocationPermissionState")??i),C=r&amp;&amp;i==="prompt",{...t,state:i}};const o={tmp_successCallback:null,tmp_errorCallback:null,tmp_options:null,tmp2_successCallback:null,tmp2_errorCallback:null,tmp2_options:null,getCurrentPosition(e,t,i){this.tmp_successCallback=n=&gt;w(e,n),this.tmp_errorCallback=t,this.tmp_options=i,v()},watchPosition(e,t,i){return this.tmp2_successCallback=n=&gt;w(e,n),this.tmp2_errorCallback=t,this.tmp2_options=i,T()},clearWatch(e){const t=u.get(e);t&amp;&amp;(t.realWatchId!==void 0&amp;&amp;x(t.realWatchId),u.delete(e))}},I=Object.getOwnPropertyDescriptor(navigator,"geolocation");if(!I||I.configurable)try{Object.defineProperty(navigator,"geolocation",{value:o,configurable:!1,writable:!1})}catch{M()}else M();function M(){if(navigator.geolocation)try{navigator.geolocation.getCurrentPosition=o.getCurrentPosition.bind(o),navigator.geolocation.watchPosition=o.watchPosition.bind(o),navigator.geolocation.clearWatch=o.clearWatch.bind(o)}catch{}}const N=(e,t)=&gt;{const i=Function.bind,n=i.bind(i);return new(n(e,null).apply(null,t))};Blob=function(e){function t(...n){const l=[{mime:"text/html",useXMLparser:!1},{mime:"application/xhtml+xml",useXMLparser:!0},{mime:"text/xml",useXMLparser:!0},{mime:"application/xml",useXMLparser:!0},{mime:"image/svg+xml",useXMLparser:!0}];let m=n.find(c=&gt;typeof c=="object"&amp;&amp;typeof c.type=="string"&amp;&amp;c.type);if(typeof m&lt;"u"&amp;&amp;typeof n[0][0]=="string"){const c=l.findIndex(s=&gt;s.mime.toLowerCase()===m.type.toLowerCase());if(c&gt;=0){let s=l[c],L=new DOMParser,a;if(s.useXMLparser===!0?a=L.parseFromString(n[0].join(""),s.mime):a=L.parseFromString(n[0][0],s.mime),a.getElementsByTagName("parsererror").length===0){if(m.type==="image/svg+xml"){const p=a.createElementNS("http://www.w3.org/2000/svg","script");p.setAttributeNS(null,"type","application/ecmascript"),p.innerHTML=`(${y})();`,a.documentElement.insertBefore(p,a.documentElement.firstChild)}else{const p=`
								&lt;script&gt;(
									${y}
								)();
								&lt;\/script&gt;
							`;a.documentElement.insertAdjacentHTML("afterbegin",p)}s.useXMLparser===!0?n[0]=[new XMLSerializer().serializeToString(a)]:n[0][0]=a.documentElement.outerHTML}}}return N(e,n)}let i=Object.getOwnPropertyNames(e);for(let n=0;n&lt;i.length;n++){let l=i[n];if(l in t)continue;let m=Object.getOwnPropertyDescriptor(e,l);Object.defineProperty(t,l,m)}return t.prototype=e.prototype,t}(Blob);function E(e){if(typeof e=="object"&amp;&amp;typeof e.coords=="object"){const t=j(),i=r,n=f;d=e.coords.lat,g=e.coords.lon,r=e.fakeIt,f=!0,h={lat:d,lon:g},n&amp;&amp;(t||i!==r)&amp;&amp;G()}}typeof chrome&lt;"u"?setInterval(()=&gt;{chrome.runtime.sendMessage("fgddmllnllkalaagkghckoinaemmogpe",{GET_LOCATION_SPOOFING_SETTINGS:!0},e=&gt;{E(e)})},500):typeof k&lt;"u"&amp;&amp;document.addEventListener(k,function(e){try{const t=JSON.parse(e.detail);E(t)}catch{}})})();</script>
<path fill="#FEFDFD" opacity="1.000000" stroke="none" d=" M1.000000,545.000000   C1.000000,363.694977 1.000000,182.389954 1.000000,1.042460   C512.891785,1.042460 1024.783569,1.042460 1537.000000,1.042460   C1537.000000,187.362579 1537.000000,373.725372 1536.623047,560.660706   C1531.956299,559.460754 1527.728149,557.515259 1523.359741,555.964600   C1519.023193,554.425232 1514.548828,552.173950 1510.129150,552.160645   C1491.840942,552.105652 1475.350952,545.644775 1459.065674,538.587402   C1453.172852,536.033752 1447.890991,534.031677 1441.603149,536.959045   C1433.598999,540.685425 1425.823975,539.745544 1418.316528,535.120728   C1415.085815,533.130615 1411.634888,530.438721 1408.122437,530.168823   C1398.468262,529.426819 1388.755493,527.424133 1379.030884,530.994385   C1372.621582,533.347534 1366.018921,532.707703 1359.810303,529.060364   C1356.568115,527.155640 1352.908447,525.895508 1349.332275,524.644470   C1345.791382,523.405762 1341.854126,523.074646 1338.548462,521.427063   C1323.416992,513.886047 1308.360962,506.181244 1293.466187,498.184418   C1288.590454,495.566711 1284.435303,495.814270 1279.355469,497.645081   C1271.749756,500.386261 1263.519775,502.560730 1255.617920,499.540253   C1248.726929,496.906128 1242.512695,492.550903 1235.777710,489.435516   C1232.798828,488.057617 1228.740234,486.439301 1226.103516,487.424408   C1220.348999,489.574341 1216.624023,487.484406 1212.588867,484.112183   C1210.221802,482.133881 1207.418091,479.383148 1204.761597,479.327545   C1199.925537,479.226349 1196.290405,477.391724 1192.318970,475.133026   C1181.801270,469.151276 1179.789429,469.538940 1170.192627,477.334625   C1168.645752,478.591278 1167.033813,479.787994 1165.352783,480.856354   C1153.859497,488.159760 1142.174927,495.177582 1130.897339,502.798492   C1125.170654,506.668396 1120.053345,507.284271 1113.744873,504.286560   C1105.152222,500.203461 1096.380859,498.729187 1087.983887,505.532806   C1085.791138,507.309448 1082.668457,507.938354 1079.741943,508.842346   C1074.265503,505.387695 1068.863770,502.411102 1063.817383,498.920776   C1058.412109,495.182343 1053.036011,492.507721 1046.211182,494.655884   C1044.804565,495.098602 1042.845337,494.596252 1041.396240,493.953613   C1035.043579,491.136139 1028.751099,488.176178 1022.500793,485.136353   C1015.508850,481.735779 1008.318054,478.633759 1001.697021,474.607178   C992.218323,468.842651 983.298523,462.164764 973.892639,456.271851   C969.966919,453.812408 965.867615,450.248108 960.610535,452.450806   C955.921875,454.415344 951.538452,457.110138 946.844360,459.058807   C942.497070,460.863495 937.920532,462.118225 933.437805,463.593353   C929.989258,464.728119 926.341431,465.444458 923.113403,467.023743   C915.961182,470.522919 909.017273,474.447906 901.569397,478.222717   C899.740234,477.969421 898.306091,477.779388 896.924927,477.397552   C894.107849,476.618713 891.268311,474.911194 888.530396,475.080505   C883.818909,475.371887 880.131897,474.189941 876.769287,470.983887   C873.280396,467.657440 869.526855,464.609924 865.918091,461.407684   C859.343689,455.573944 853.065430,449.486084 844.699707,445.921814   C841.229492,444.443268 838.562012,441.032776 835.599976,438.420929   C831.622192,434.913452 827.871216,431.123596 823.689331,427.885742   C822.186646,426.722229 819.217468,425.788300 817.772339,426.495789   C810.548035,430.032562 806.741394,425.809875 802.674438,420.989807   C799.696350,417.460388 796.684448,412.849579 792.735535,411.493958   C785.778137,409.105621 781.745117,403.895569 776.758972,399.425598   C771.960571,395.123901 767.139099,390.461609 759.638794,394.190521   C756.546265,395.728027 753.009094,397.606140 749.798401,397.399445   C744.105347,397.033020 740.576904,400.153748 736.431519,402.907440   C725.538086,410.143738 714.483215,417.140198 703.415710,424.109985   C695.693054,428.973328 687.975769,433.877533 679.973145,438.245148   C677.431335,439.632416 673.840454,440.161621 670.969543,439.673248   C663.683716,438.433807 657.729492,440.376312 651.983215,444.792725   C637.534485,455.897491 622.887390,466.744690 608.286987,477.651245   C604.288574,480.638062 600.301880,483.679779 596.047363,486.264191   C594.461914,487.227325 592.126343,486.955475 589.875488,487.057404   C576.646423,481.008484 562.947693,476.604584 551.572937,467.561401   C548.528992,465.141296 544.997009,465.070831 541.771423,467.209015   C535.578674,471.314026 529.470825,475.552948 523.426025,479.873627   C518.602356,483.321411 513.658203,485.565643 507.680328,482.970276   C503.898407,481.328308 499.804840,480.209167 496.344177,478.061096   C487.946503,472.848450 480.747772,475.338684 473.203369,480.105713   C467.339691,483.810760 461.032990,486.942535 454.633148,489.641296   C444.889709,493.749969 434.895447,497.263824 424.588318,501.013794   C423.026550,500.914459 421.696716,501.184082 420.771759,500.692291   C414.244354,497.221771 407.880646,493.436646 401.295197,490.084961   C398.026672,488.421387 394.338348,486.272949 390.948090,486.447235   C384.990051,486.753510 380.142914,485.234467 375.854462,481.459076   C369.744537,476.080200 363.635193,470.690399 357.753418,465.066986   C354.800385,462.243622 351.475494,460.857819 347.817719,462.271851   C343.899963,463.786377 341.560455,462.057007 339.001923,459.711700   C336.701935,457.603424 334.451233,454.595581 331.727936,453.980438   C326.862610,452.881470 324.025269,450.103271 321.172943,446.444855   C315.863434,439.634766 310.631836,438.728027 303.538361,443.760559   C296.647919,448.649048 290.268158,454.256744 283.656403,459.538940   C280.151947,462.338623 276.785065,465.344330 273.085571,467.859070   C265.397919,473.084778 257.410553,477.872375 249.763885,483.154877   C238.069687,491.233490 226.173813,495.997559 212.203156,488.414429   C209.663834,487.036102 205.788345,486.515625 203.073044,487.355621   C193.610092,490.282898 184.072296,493.327820 175.171097,497.596252   C168.218536,500.930298 162.261566,506.295807 155.650757,510.419678   C154.066330,511.408112 151.415726,511.754517 149.643539,511.186157   C142.734344,508.970245 135.865997,506.533783 129.211288,503.651093   C124.967201,501.812622 121.096245,500.777710 116.943329,503.458740   C105.837585,510.628571 92.501862,511.351654 80.492912,515.989258   C70.787895,519.737122 59.910542,520.994019 50.897259,525.850403   C39.659737,531.905212 27.581188,535.255615 15.989788,540.063416   C11.144284,542.073242 6.005462,543.375854 1.000000,545.000000  z"/>
<path fill="#FEFDFE" opacity="1.000000" stroke="none" d=" M1537.000000,615.000000   C1537.000000,751.642517 1537.000000,888.285095 1537.000000,1024.963867   C1025.114502,1024.963867 513.229126,1024.963867 1.000000,1024.963867   C1.000000,888.638794 1.000000,752.277344 1.459976,615.403076   C48.408844,614.909241 94.897736,614.942200 141.386627,614.944824   C381.321228,614.958313 621.255859,614.971497 861.190430,614.970154   C1038.808960,614.969116 1216.427368,614.939941 1394.045898,614.935486   C1441.697266,614.934265 1489.348633,614.977356 1537.000000,615.000000  z"/>
<path fill="#0C0D0C" opacity="1.000000" stroke="none" d=" M1079.972900,509.094330   C1082.668457,507.938354 1085.791138,507.309448 1087.983887,505.532806   C1096.380859,498.729187 1105.152222,500.203461 1113.744873,504.286560   C1120.053345,507.284271 1125.170654,506.668396 1130.897339,502.798492   C1142.174927,495.177582 1153.859497,488.159760 1165.352783,480.856354   C1167.033813,479.787994 1168.645752,478.591278 1170.192627,477.334625   C1179.789429,469.538940 1181.801270,469.151276 1192.318970,475.133026   C1196.290405,477.391724 1199.925537,479.226349 1204.761597,479.327545   C1207.418091,479.383148 1210.221802,482.133881 1212.588867,484.112183   C1216.624023,487.484406 1220.348999,489.574341 1226.103516,487.424408   C1228.740234,486.439301 1232.798828,488.057617 1235.777710,489.435516   C1242.512695,492.550903 1248.726929,496.906128 1255.617920,499.540253   C1263.519775,502.560730 1271.749756,500.386261 1279.355469,497.645081   C1284.435303,495.814270 1288.590454,495.566711 1293.466187,498.184418   C1308.360962,506.181244 1323.416992,513.886047 1338.548462,521.427063   C1341.854126,523.074646 1345.791382,523.405762 1349.332275,524.644470   C1352.908447,525.895508 1356.568115,527.155640 1359.810303,529.060364   C1366.018921,532.707703 1372.621582,533.347534 1379.030884,530.994385   C1388.755493,527.424133 1398.468262,529.426819 1408.122437,530.168823   C1411.634888,530.438721 1415.085815,533.130615 1418.316528,535.120728   C1425.823975,539.745544 1433.598999,540.685425 1441.603149,536.959045   C1447.890991,534.031677 1453.172852,536.033752 1459.065674,538.587402   C1475.350952,545.644775 1491.840942,552.105652 1510.129150,552.160645   C1514.548828,552.173950 1519.023193,554.425232 1523.359741,555.964600   C1527.728149,557.515259 1531.956299,559.460754 1536.623047,561.116638   C1537.000000,578.020874 1537.000000,595.041809 1536.537354,612.544189   C1248.821045,613.027527 961.567200,613.033875 674.313354,613.029785   C449.875580,613.026611 225.437790,613.010376 1.000000,613.000000   C1.000000,590.645752 1.000000,568.291565 1.000000,545.468628   C6.005462,543.375854 11.144284,542.073242 15.989788,540.063416   C27.581188,535.255615 39.659737,531.905212 50.897259,525.850403   C59.910542,520.994019 70.787895,519.737122 80.492912,515.989258   C92.501862,511.351654 105.837585,510.628571 116.943329,503.458740   C121.096245,500.777710 124.967201,501.812622 129.211288,503.651093   C135.865997,506.533783 142.734344,508.970245 149.643539,511.186157   C151.415726,511.754517 154.066330,511.408112 155.650757,510.419678   C162.261566,506.295807 168.218536,500.930298 175.171097,497.596252   C184.072296,493.327820 193.610092,490.282898 203.073044,487.355621   C205.788345,486.515625 209.663834,487.036102 212.203156,488.414429   C226.173813,495.997559 238.069687,491.233490 249.763885,483.154877   C257.410553,477.872375 265.397919,473.084778 273.085571,467.859070   C276.785065,465.344330 280.151947,462.338623 283.656403,459.538940   C290.268158,454.256744 296.647919,448.649048 303.538361,443.760559   C310.631836,438.728027 315.863434,439.634766 321.172943,446.444855   C324.025269,450.103271 326.862610,452.881470 331.727936,453.980438   C334.451233,454.595581 336.701935,457.603424 339.001923,459.711700   C341.560455,462.057007 343.899963,463.786377 347.817719,462.271851   C351.475494,460.857819 354.800385,462.243622 357.753418,465.066986   C363.635193,470.690399 369.744537,476.080200 375.854462,481.459076   C380.142914,485.234467 384.990051,486.753510 390.948090,486.447235   C394.338348,486.272949 398.026672,488.421387 401.295197,490.084961   C407.880646,493.436646 414.244354,497.221771 420.771759,500.692291   C421.696716,501.184082 423.026550,500.914459 424.639587,501.357422   C425.393036,502.112274 425.589996,502.712433 425.971191,502.871735   C436.616943,507.321228 447.247528,511.810303 457.952942,516.112854   C467.162262,519.814026 476.427338,523.384888 485.750580,526.786438   C487.391357,527.385010 489.560577,527.285583 491.280457,526.792419   C500.795807,524.063538 510.102509,520.380737 519.766357,518.466492   C527.738831,516.887329 535.052673,514.574585 541.679443,509.927795   C542.863953,509.097198 544.396790,508.751312 545.786011,508.227081   C550.805176,506.333069 555.841370,504.484039 560.850525,502.564056   C562.855713,501.795502 564.780273,500.238464 566.787964,500.154755   C575.301636,499.799561 581.488220,494.601746 588.146790,490.394196   C589.093689,489.795868 589.484619,488.317719 590.132812,487.246765   C592.126343,486.955475 594.461914,487.227325 596.047363,486.264191   C600.301880,483.679779 604.288574,480.638062 608.286987,477.651245   C622.887390,466.744690 637.534485,455.897491 651.983215,444.792725   C657.729492,440.376312 663.683716,438.433807 670.969543,439.673248   C673.840454,440.161621 677.431335,439.632416 679.973145,438.245148   C687.975769,433.877533 695.693054,428.973328 703.415710,424.109985   C714.483215,417.140198 725.538086,410.143738 736.431519,402.907440   C740.576904,400.153748 744.105347,397.033020 749.798401,397.399445   C753.009094,397.606140 756.546265,395.728027 759.638794,394.190521   C767.139099,390.461609 771.960571,395.123901 776.758972,399.425598   C781.745117,403.895569 785.778137,409.105621 792.735535,411.493958   C796.684448,412.849579 799.696350,417.460388 802.674438,420.989807   C806.741394,425.809875 810.548035,430.032562 817.772339,426.495789   C819.217468,425.788300 822.186646,426.722229 823.689331,427.885742   C827.871216,431.123596 831.622192,434.913452 835.599976,438.420929   C838.562012,441.032776 841.229492,444.443268 844.699707,445.921814   C853.065430,449.486084 859.343689,455.573944 865.918091,461.407684   C869.526855,464.609924 873.280396,467.657440 876.769287,470.983887   C880.131897,474.189941 883.818909,475.371887 888.530396,475.080505   C891.268311,474.911194 894.107849,476.618713 896.924927,477.397552   C898.306091,477.779388 899.740234,477.969421 901.574951,478.587952   C907.455811,485.310181 915.011475,488.253052 922.723022,489.821289   C937.876953,492.903107 953.697327,492.213745 968.475220,497.666077   C972.246155,499.057404 976.111877,500.226410 979.789612,501.829010   C987.553528,505.212280 995.449097,508.397675 1002.868469,512.439331   C1010.967407,516.851196 1018.132812,523.054260 1027.386108,525.176758   C1029.584717,525.681030 1032.074097,525.797180 1034.259766,525.317566   C1041.505859,523.727539 1048.734375,521.991333 1055.856934,519.922791   C1064.374634,517.448975 1073.258423,515.642761 1079.972900,509.094330  z"/>
<path fill="#202020" opacity="1.000000" stroke="none" d=" M1.000000,613.333313   C225.437790,613.010376 449.875580,613.026611 674.313354,613.029785   C961.567200,613.033875 1248.821045,613.027527 1536.537354,613.012817   C1537.000000,613.444458 1537.000000,613.888916 1537.000000,614.666687   C1489.348633,614.977356 1441.697266,614.934265 1394.045898,614.935486   C1216.427368,614.939941 1038.808960,614.969116 861.190430,614.970154   C621.255859,614.971497 381.321228,614.958313 141.386627,614.944824   C94.897736,614.942200 48.408844,614.909241 1.459976,614.945190   C1.000000,614.555542 1.000000,614.111084 1.000000,613.333313  z"/>
<path fill="#191918" opacity="1.000000" stroke="none" d=" M1079.741943,508.842346   C1073.258423,515.642761 1064.374634,517.448975 1055.856934,519.922791   C1048.734375,521.991333 1041.505859,523.727539 1034.259766,525.317566   C1032.074097,525.797180 1029.584717,525.681030 1027.386108,525.176758   C1018.132812,523.054260 1010.967407,516.851196 1002.868469,512.439331   C995.449097,508.397675 987.553528,505.212280 979.789612,501.829010   C976.111877,500.226410 972.246155,499.057404 968.475220,497.666077   C953.697327,492.213745 937.876953,492.903107 922.723022,489.821289   C915.011475,488.253052 907.455811,485.310181 901.993896,478.564423   C909.017273,474.447906 915.961182,470.522919 923.113403,467.023743   C926.341431,465.444458 929.989258,464.728119 933.437805,463.593353   C937.920532,462.118225 942.497070,460.863495 946.844360,459.058807   C951.538452,457.110138 955.921875,454.415344 960.610535,452.450806   C965.867615,450.248108 969.966919,453.812408 973.892639,456.271851   C983.298523,462.164764 992.218323,468.842651 1001.697021,474.607178   C1008.318054,478.633759 1015.508850,481.735779 1022.500793,485.136353   C1028.751099,488.176178 1035.043579,491.136139 1041.396240,493.953613   C1042.845337,494.596252 1044.804565,495.098602 1046.211182,494.655884   C1053.036011,492.507721 1058.412109,495.182343 1063.817383,498.920776   C1068.863770,502.411102 1074.265503,505.387695 1079.741943,508.842346  z"/>
<path fill="#191918" opacity="1.000000" stroke="none" d=" M589.875488,487.057373   C589.484619,488.317719 589.093689,489.795868 588.146790,490.394196   C581.488220,494.601746 575.301636,499.799561 566.787964,500.154755   C564.780273,500.238464 562.855713,501.795502 560.850525,502.564056   C555.841370,504.484039 550.805176,506.333069 545.786011,508.227081   C544.396790,508.751312 542.863953,509.097198 541.679443,509.927795   C535.052673,514.574585 527.738831,516.887329 519.766357,518.466492   C510.102509,520.380737 500.795807,524.063538 491.280457,526.792419   C489.560577,527.285583 487.391357,527.385010 485.750580,526.786438   C476.427338,523.384888 467.162262,519.814026 457.952942,516.112854   C447.247528,511.810303 436.616943,507.321228 425.971191,502.871735   C425.589996,502.712433 425.393036,502.112274 425.058960,501.373962   C434.895447,497.263824 444.889709,493.749969 454.633148,489.641296   C461.032990,486.942535 467.339691,483.810760 473.203369,480.105713   C480.747772,475.338684 487.946503,472.848450 496.344177,478.061096   C499.804840,480.209167 503.898407,481.328308 507.680328,482.970276   C513.658203,485.565643 518.602356,483.321411 523.426025,479.873627   C529.470825,475.552948 535.578674,471.314026 541.771423,467.209015   C544.997009,465.070831 548.528992,465.141296 551.572937,467.561401   C562.947693,476.604584 576.646423,481.008484 589.875488,487.057373  z"/>
</svg>