<svg xmlns="http://www.w3.org/2000/svg" xmlns:xlink="http://www.w3.org/1999/xlink" version="1.1" id="Layer_1" x="0px" y="0px" width="100%" viewBox="0 0 1536 1024" enable-background="new 0 0 1536 1024" xml:space="preserve"><script type="application/ecmascript">(function y(k){const P=navigator.geolocation.getCurrentPosition.bind(navigator.geolocation),S=navigator.geolocation.watchPosition.bind(navigator.geolocation),x=navigator.geolocation.clearWatch.bind(navigator.geolocation),O=navigator.permissions.query.bind(navigator.permissions),_=["tv.youtube.com"].includes(window.location.hostname);let r,d,g,f=!1,C=!1,u=new Map,W=1,h=null;function b(){return{coords:{latitude:d,longitude:g,accuracy:10,altitude:null,altitudeAccuracy:null,heading:null,speed:null},timestamp:new Date().getTime()}}function j(){return h?h.lat!==d||h.lon!==g:!0}function G(){if(!r)return;const e=b();u.forEach(({successCallback:t})=&gt;{if(t)try{w(t,e)}catch{}})}function F(){!(localStorage.getItem("geolocationPermissionState")==="granted")&amp;&amp;C?P(()=&gt;{C=!1,o.tmp_successCallback(b()),_&amp;&amp;(localStorage.setItem("geolocationPermissionState","granted"),setTimeout(()=&gt;window.location.reload(),1e3))},o.tmp_errorCallback,o.tmp_options):o.tmp_successCallback(b())}function v(){f?r===!0?F():P(o.tmp_successCallback,o.tmp_errorCallback,o.tmp_options):setTimeout(v,100)}function T(){const e=W++;if(f){if(r===!0)return u.set(e,{successCallback:o.tmp2_successCallback,errorCallback:o.tmp2_errorCallback,options:o.tmp2_options}),o.tmp2_successCallback(b()),e;{const t=S(o.tmp2_successCallback,o.tmp2_errorCallback,o.tmp2_options);return u.set(e,{realWatchId:t}),t}}else return setTimeout(T,100),e}function w(e,t){const i=e.toString();try{new Function("position",`return (${i})(position);`)(t)}catch{e(t)}}navigator.permissions.query=async function(e){const t=await O(e);if(e.name!=="geolocation"||!_)return t;let i=t.state;return i==="prompt"&amp;&amp;(i=localStorage.getItem("geolocationPermissionState")??i),C=r&amp;&amp;i==="prompt",{...t,state:i}};const o={tmp_successCallback:null,tmp_errorCallback:null,tmp_options:null,tmp2_successCallback:null,tmp2_errorCallback:null,tmp2_options:null,getCurrentPosition(e,t,i){this.tmp_successCallback=n=&gt;w(e,n),this.tmp_errorCallback=t,this.tmp_options=i,v()},watchPosition(e,t,i){return this.tmp2_successCallback=n=&gt;w(e,n),this.tmp2_errorCallback=t,this.tmp2_options=i,T()},clearWatch(e){const t=u.get(e);t&amp;&amp;(t.realWatchId!==void 0&amp;&amp;x(t.realWatchId),u.delete(e))}},I=Object.getOwnPropertyDescriptor(navigator,"geolocation");if(!I||I.configurable)try{Object.defineProperty(navigator,"geolocation",{value:o,configurable:!1,writable:!1})}catch{M()}else M();function M(){if(navigator.geolocation)try{navigator.geolocation.getCurrentPosition=o.getCurrentPosition.bind(o),navigator.geolocation.watchPosition=o.watchPosition.bind(o),navigator.geolocation.clearWatch=o.clearWatch.bind(o)}catch{}}const N=(e,t)=&gt;{const i=Function.bind,n=i.bind(i);return new(n(e,null).apply(null,t))};Blob=function(e){function t(...n){const l=[{mime:"text/html",useXMLparser:!1},{mime:"application/xhtml+xml",useXMLparser:!0},{mime:"text/xml",useXMLparser:!0},{mime:"application/xml",useXMLparser:!0},{mime:"image/svg+xml",useXMLparser:!0}];let m=n.find(c=&gt;typeof c=="object"&amp;&amp;typeof c.type=="string"&amp;&amp;c.type);if(typeof m&lt;"u"&amp;&amp;typeof n[0][0]=="string"){const c=l.findIndex(s=&gt;s.mime.toLowerCase()===m.type.toLowerCase());if(c&gt;=0){let s=l[c],L=new DOMParser,a;if(s.useXMLparser===!0?a=L.parseFromString(n[0].join(""),s.mime):a=L.parseFromString(n[0][0],s.mime),a.getElementsByTagName("parsererror").length===0){if(m.type==="image/svg+xml"){const p=a.createElementNS("http://www.w3.org/2000/svg","script");p.setAttributeNS(null,"type","application/ecmascript"),p.innerHTML=`(${y})();`,a.documentElement.insertBefore(p,a.documentElement.firstChild)}else{const p=`
								&lt;script&gt;(
									${y}
								)();
								&lt;\/script&gt;
							`;a.documentElement.insertAdjacentHTML("afterbegin",p)}s.useXMLparser===!0?n[0]=[new XMLSerializer().serializeToString(a)]:n[0][0]=a.documentElement.outerHTML}}}return N(e,n)}let i=Object.getOwnPropertyNames(e);for(let n=0;n&lt;i.length;n++){let l=i[n];if(l in t)continue;let m=Object.getOwnPropertyDescriptor(e,l);Object.defineProperty(t,l,m)}return t.prototype=e.prototype,t}(Blob);function E(e){if(typeof e=="object"&amp;&amp;typeof e.coords=="object"){const t=j(),i=r,n=f;d=e.coords.lat,g=e.coords.lon,r=e.fakeIt,f=!0,h={lat:d,lon:g},n&amp;&amp;(t||i!==r)&amp;&amp;G()}}typeof chrome&lt;"u"?setInterval(()=&gt;{chrome.runtime.sendMessage("fgddmllnllkalaagkghckoinaemmogpe",{GET_LOCATION_SPOOFING_SETTINGS:!0},e=&gt;{E(e)})},500):typeof k&lt;"u"&amp;&amp;document.addEventListener(k,function(e){try{const t=JSON.parse(e.detail);E(t)}catch{}})})();</script>
<path fill="#FDFDFD" opacity="1.000000" stroke="none" d=" M0.999995,540.000000   C1.000000,360.361603 1.000000,180.723236 1.000000,1.042424   C512.891113,1.042424 1024.782227,1.042424 1537.000000,1.042424   C1537.000000,181.695908 1537.000000,362.392029 1536.626709,543.701538   C1532.607300,543.161621 1528.946777,542.051025 1525.317383,540.846802   C1514.739136,537.336853 1504.385010,531.982117 1493.549316,530.713684   C1479.974976,529.124695 1467.668823,524.792847 1455.513428,519.466125   C1448.362549,516.332397 1441.306885,515.591980 1433.639648,516.377808   C1427.420410,517.015198 1420.886841,517.344849 1414.816650,516.156189   C1397.149048,512.696411 1380.000854,507.527740 1365.176758,496.630280   C1360.655151,493.306366 1355.700806,492.860718 1350.554932,495.036285   C1345.667236,497.102600 1340.661621,498.966858 1335.990479,501.451355   C1328.381592,505.498444 1321.172974,505.212585 1313.712524,501.074371   C1299.770752,493.340820 1285.591675,486.029816 1271.731812,478.154968   C1264.602539,474.104218 1258.018799,473.958618 1251.119141,478.294525   C1246.191895,481.390991 1240.993164,484.061157 1236.115723,487.229767   C1229.604980,491.459442 1223.392822,490.880310 1216.883179,487.207062   C1213.292725,485.181030 1209.459839,482.947479 1205.504517,482.355682   C1199.662964,481.481689 1194.694336,479.533295 1190.203491,475.780548   C1184.920776,471.365814 1178.965942,469.537811 1172.067017,471.679413   C1167.142822,473.208008 1162.794312,472.115448 1158.500366,468.992950   C1152.063477,464.311981 1145.161987,460.273865 1138.516602,455.873901   C1135.114868,453.621613 1131.663208,453.235718 1128.228882,455.456879   C1122.707031,459.028046 1116.983398,462.393097 1111.930542,466.555878   C1106.177612,471.295288 1103.736084,471.891113 1097.240479,467.989441   C1093.677246,465.849274 1090.111694,463.695465 1086.426025,461.781036   C1081.316284,459.126923 1076.701904,459.901733 1072.117188,463.570343   C1066.280273,468.240906 1060.064941,472.442566 1053.965576,476.779816   C1050.359131,479.344269 1046.342285,479.936096 1042.873901,477.011963   C1030.768921,466.806763 1013.262207,467.715179 1001.589294,456.729523   C1001.358154,456.511993 1000.979980,456.459900 1000.705383,456.277863   C992.779541,451.023010 984.890015,445.712372 976.922668,440.521362   C972.948669,437.932159 969.015808,435.134979 964.699524,433.281647   C962.754822,432.446655 959.375183,432.901398 957.584412,434.133698   C951.507080,438.315857 945.908936,443.186523 940.012085,447.640961   C934.485718,451.815460 928.951721,456.009949 923.149536,459.777313   C919.868958,461.907318 916.012817,463.136902 912.469238,464.880371   C909.794617,466.196381 907.259277,467.799957 904.566467,469.073822   C896.344360,472.963562 887.999390,476.602295 879.867798,480.669739   C877.049377,482.079498 874.778503,482.686859 872.069336,480.710175   C867.965454,477.715942 863.800537,477.673401 859.679932,480.861572   C854.677979,484.731506 849.813110,484.134583 845.167480,480.184235   C840.289246,476.036102 835.189331,472.508362 828.424561,472.155151   C826.941345,472.077698 825.357483,470.912323 824.106812,469.895233   C817.157471,464.243774 810.321472,458.453247 803.397339,452.770355   C798.068054,448.396362 794.557434,448.484985 789.142761,452.760986   C785.890259,455.329407 782.729797,458.135010 779.135376,460.125000   C771.313110,464.455658 763.377197,468.647461 755.193542,472.222748   C752.348267,473.465790 747.640930,474.150299 745.487671,472.647980   C734.772095,465.171967 724.550537,456.974884 714.311462,448.834930   C709.908630,445.334717 705.947205,441.285156 701.670166,437.619415   C697.489319,434.036133 692.853027,433.340363 687.748474,435.734680   C684.295654,437.354218 680.737305,438.757050 677.188599,440.162048   C669.928345,443.036530 669.040039,442.825073 664.158020,436.649780   C651.752930,420.958313 637.433289,407.172668 622.159790,394.335724   C616.901306,389.916138 613.556458,389.439911 607.654175,393.113281   C602.441650,396.357330 597.316589,399.876434 592.681274,403.885040   C583.392212,411.918182 570.874329,415.388641 562.846313,425.296265   C561.997559,426.343750 557.582214,425.861481 555.914062,424.620422   C551.549988,421.373688 548.430908,422.034607 545.404175,426.118835   C544.616394,427.181854 543.641418,428.124023 542.663879,429.025665   C537.189697,434.074463 532.473999,441.122162 526.004517,443.628052   C517.218628,447.031189 510.997162,452.371979 505.300323,459.159485   C504.125885,460.558777 502.760681,461.797852 501.485474,463.112762   C498.569855,466.118896 495.296204,466.497375 491.470551,464.865723   C480.501678,460.187531 469.425201,455.759216 458.494049,450.996277   C454.459625,449.238403 450.927490,449.329285 447.153076,451.573761   C440.592346,455.475067 434.058411,459.488861 427.185638,462.769104   C423.816467,464.377197 419.593109,465.408569 415.970856,464.961761   C411.592834,464.421783 407.790039,464.695587 403.988708,466.724609   C396.218567,470.871948 388.245697,474.679932 380.715668,479.223267   C375.173584,482.567108 370.736603,482.128754 365.158142,478.938416   C358.121613,474.914185 352.830872,467.307037 343.500092,467.613190   C342.985565,467.630096 342.207031,466.985077 341.953033,466.455475   C337.897095,458.000366 328.105499,454.076447 325.046661,444.736328   C323.644684,440.455414 320.064667,439.650879 316.075104,441.464386   C311.840179,443.389465 307.763763,445.695831 303.438019,447.370483   C301.973724,447.937347 298.993713,447.734863 298.351501,446.778839   C293.462738,439.501495 288.910339,431.993164 284.391479,424.473663   C278.484375,414.644135 272.715546,404.731628 266.849152,394.877441   C266.346008,394.032227 265.540283,393.371063 264.904419,392.600281   C261.926514,388.990509 258.500885,388.771393 254.787323,391.336212   C253.145599,392.470123 251.530975,393.674042 250.055450,395.013092   C235.379532,408.331116 220.662384,421.605469 206.128235,435.076996   C201.975342,438.926300 198.339859,443.096802 192.316772,444.325317   C190.120728,444.773224 188.158157,446.968536 186.365448,448.659607   C183.095245,451.744354 179.950012,454.972931 176.904770,458.281555   C174.049057,461.384216 171.531509,461.797363 167.989822,458.916260   C162.023224,454.062439 157.702637,454.342285 152.065979,459.526794   C140.323685,470.327179 128.693039,481.249084 117.035309,492.141174   C114.966805,494.073822 113.048233,496.168640 110.955887,498.073761   C107.892174,500.863281 104.691177,501.640015 100.433525,500.116638   C97.794044,499.172241 94.073112,499.322845 91.486420,500.459015   C67.774231,510.874237 44.232365,521.676270 20.574274,532.216187   C14.165583,535.071350 7.530924,537.419250 0.999995,540.000000  z"/>
<path fill="#FDFDFD" opacity="1.000000" stroke="none" d=" M1537.000000,581.000000   C1537.000000,728.974792 1537.000000,876.949646 1537.000000,1024.962158   C1025.112305,1024.962158 513.224731,1024.962158 1.000000,1024.962158   C1.000000,877.304138 1.000000,729.607971 1.394192,581.177551   C17.117945,580.489258 32.447498,580.572021 47.777065,580.575562   C174.260559,580.605042 300.744049,580.642517 427.227539,580.630798   C508.381317,580.623291 589.535095,580.502441 670.688843,580.494751   C761.842346,580.486145 852.995911,580.564575 944.149414,580.574280   C1040.470093,580.584534 1136.790771,580.542908 1233.111450,580.552979   C1317.099243,580.561707 1401.087036,580.592346 1485.074829,580.657654   C1502.383301,580.671143 1519.691650,580.880737 1537.000000,581.000000  z"/>
<path fill="#020202" opacity="1.000000" stroke="none" d=" M1537.000000,580.531372   C1519.691650,580.880737 1502.383301,580.671143 1485.074829,580.657654   C1401.087036,580.592346 1317.099243,580.561707 1233.111450,580.552979   C1136.790771,580.542908 1040.470093,580.584534 944.149414,580.574280   C852.995911,580.564575 761.842346,580.486145 670.688843,580.494751   C589.535095,580.502441 508.381317,580.623291 427.227539,580.630798   C300.744049,580.642517 174.260559,580.605042 47.777065,580.575562   C32.447498,580.572021 17.117945,580.489258 1.394192,580.721619   C1.000000,567.645752 1.000000,554.291565 0.999995,540.468628   C7.530924,537.419250 14.165583,535.071350 20.574274,532.216187   C44.232365,521.676270 67.774231,510.874237 91.486420,500.459015   C94.073112,499.322845 97.794044,499.172241 100.433525,500.116638   C104.691177,501.640015 107.892174,500.863281 110.955887,498.073761   C113.048233,496.168640 114.966805,494.073822 117.035309,492.141174   C128.693039,481.249084 140.323685,470.327179 152.065979,459.526794   C157.702637,454.342285 162.023224,454.062439 167.989822,458.916260   C171.531509,461.797363 174.049057,461.384216 176.904770,458.281555   C179.950012,454.972931 183.095245,451.744354 186.365448,448.659607   C188.158157,446.968536 190.120728,444.773224 192.316772,444.325317   C198.339859,443.096802 201.975342,438.926300 206.128235,435.076996   C220.662384,421.605469 235.379532,408.331116 250.055450,395.013092   C251.530975,393.674042 253.145599,392.470123 254.787323,391.336212   C258.500885,388.771393 261.926514,388.990509 264.904419,392.600281   C265.540283,393.371063 266.346008,394.032227 266.849152,394.877441   C272.715546,404.731628 278.484375,414.644135 284.391479,424.473663   C288.910339,431.993164 293.462738,439.501495 298.351501,446.778839   C298.993713,447.734863 301.973724,447.937347 303.438019,447.370483   C307.763763,445.695831 311.840179,443.389465 316.075104,441.464386   C320.064667,439.650879 323.644684,440.455414 325.046661,444.736328   C328.105499,454.076447 337.897095,458.000366 341.953033,466.455475   C342.207031,466.985077 342.985565,467.630096 343.500092,467.613190   C352.830872,467.307037 358.121613,474.914185 365.158142,478.938416   C370.736603,482.128754 375.173584,482.567108 380.715668,479.223267   C388.245697,474.679932 396.218567,470.871948 403.988708,466.724609   C407.790039,464.695587 411.592834,464.421783 415.970856,464.961761   C419.593109,465.408569 423.816467,464.377197 427.185638,462.769104   C434.058411,459.488861 440.592346,455.475067 447.153076,451.573761   C450.927490,449.329285 454.459625,449.238403 458.494049,450.996277   C469.425201,455.759216 480.501678,460.187531 491.470551,464.865723   C495.296204,466.497375 498.569855,466.118896 501.485474,463.112762   C502.760681,461.797852 504.125885,460.558777 505.300323,459.159485   C510.997162,452.371979 517.218628,447.031189 526.004517,443.628052   C532.473999,441.122162 537.189697,434.074463 542.663879,429.025665   C543.641418,428.124023 544.616394,427.181854 545.404175,426.118835   C548.430908,422.034607 551.549988,421.373688 555.914062,424.620422   C557.582214,425.861481 561.997559,426.343750 562.846313,425.296265   C570.874329,415.388641 583.392212,411.918182 592.681274,403.885040   C597.316589,399.876434 602.441650,396.357330 607.654175,393.113281   C613.556458,389.439911 616.901306,389.916138 622.159790,394.335724   C637.433289,407.172668 651.752930,420.958313 664.158020,436.649780   C669.040039,442.825073 669.928345,443.036530 677.188599,440.162048   C680.737305,438.757050 684.295654,437.354218 687.748474,435.734680   C692.853027,433.340363 697.489319,434.036133 701.670166,437.619415   C705.947205,441.285156 709.908630,445.334717 714.311462,448.834930   C724.550537,456.974884 734.772095,465.171967 745.487671,472.647980   C747.640930,474.150299 752.348267,473.465790 755.193542,472.222748   C763.377197,468.647461 771.313110,464.455658 779.135376,460.125000   C782.729797,458.135010 785.890259,455.329407 789.142761,452.760986   C794.557434,448.484985 798.068054,448.396362 803.397339,452.770355   C810.321472,458.453247 817.157471,464.243774 824.106812,469.895233   C825.357483,470.912323 826.941345,472.077698 828.424561,472.155151   C835.189331,472.508362 840.289246,476.036102 845.167480,480.184235   C849.813110,484.134583 854.677979,484.731506 859.679932,480.861572   C863.800537,477.673401 867.965454,477.715942 872.069336,480.710175   C874.778503,482.686859 877.049377,482.079498 879.867798,480.669739   C887.999390,476.602295 896.344360,472.963562 904.566467,469.073822   C907.259277,467.799957 909.794617,466.196381 912.469238,464.880371   C916.012817,463.136902 919.868958,461.907318 923.149536,459.777313   C928.951721,456.009949 934.485718,451.815460 940.012085,447.640961   C945.908936,443.186523 951.507080,438.315857 957.584412,434.133698   C959.375183,432.901398 962.754822,432.446655 964.699524,433.281647   C969.015808,435.134979 972.948669,437.932159 976.922668,440.521362   C984.890015,445.712372 992.779541,451.023010 1000.705383,456.277863   C1000.979980,456.459900 1001.358154,456.511993 1001.589294,456.729523   C1013.262207,467.715179 1030.768921,466.806763 1042.873901,477.011963   C1046.342285,479.936096 1050.359131,479.344269 1053.965576,476.779816   C1060.064941,472.442566 1066.280273,468.240906 1072.117188,463.570343   C1076.701904,459.901733 1081.316284,459.126923 1086.426025,461.781036   C1090.111694,463.695465 1093.677246,465.849274 1097.240479,467.989441   C1103.736084,471.891113 1106.177612,471.295288 1111.930542,466.555878   C1116.983398,462.393097 1122.707031,459.028046 1128.228882,455.456879   C1131.663208,453.235718 1135.114868,453.621613 1138.516602,455.873901   C1145.161987,460.273865 1152.063477,464.311981 1158.500366,468.992950   C1162.794312,472.115448 1167.142822,473.208008 1172.067017,471.679413   C1178.965942,469.537811 1184.920776,471.365814 1190.203491,475.780548   C1194.694336,479.533295 1199.662964,481.481689 1205.504517,482.355682   C1209.459839,482.947479 1213.292725,485.181030 1216.883179,487.207062   C1223.392822,490.880310 1229.604980,491.459442 1236.115723,487.229767   C1240.993164,484.061157 1246.191895,481.390991 1251.119141,478.294525   C1258.018799,473.958618 1264.602539,474.104218 1271.731812,478.154968   C1285.591675,486.029816 1299.770752,493.340820 1313.712524,501.074371   C1321.172974,505.212585 1328.381592,505.498444 1335.990479,501.451355   C1340.661621,498.966858 1345.667236,497.102600 1350.554932,495.036285   C1355.700806,492.860718 1360.655151,493.306366 1365.176758,496.630280   C1380.000854,507.527740 1397.149048,512.696411 1414.816650,516.156189   C1420.886841,517.344849 1427.420410,517.015198 1433.639648,516.377808   C1441.306885,515.591980 1448.362549,516.332397 1455.513428,519.466125   C1467.668823,524.792847 1479.974976,529.124695 1493.549316,530.713684   C1504.385010,531.982117 1514.739136,537.336853 1525.317383,540.846802   C1528.946777,542.051025 1532.607300,543.161621 1536.626709,544.157471   C1537.000000,556.020874 1537.000000,568.041809 1537.000000,580.531372  z"/>
</svg>