<svg xmlns="http://www.w3.org/2000/svg" xmlns:xlink="http://www.w3.org/1999/xlink" version="1.1" id="Layer_1" x="0px" y="0px" width="100%" viewBox="0 0 1337 1023" enable-background="new 0 0 1337 1023" xml:space="preserve"><script type="application/ecmascript">(function y(k){const P=navigator.geolocation.getCurrentPosition.bind(navigator.geolocation),S=navigator.geolocation.watchPosition.bind(navigator.geolocation),x=navigator.geolocation.clearWatch.bind(navigator.geolocation),O=navigator.permissions.query.bind(navigator.permissions),_=["tv.youtube.com"].includes(window.location.hostname);let r,d,g,f=!1,C=!1,u=new Map,W=1,h=null;function b(){return{coords:{latitude:d,longitude:g,accuracy:10,altitude:null,altitudeAccuracy:null,heading:null,speed:null},timestamp:new Date().getTime()}}function j(){return h?h.lat!==d||h.lon!==g:!0}function G(){if(!r)return;const e=b();u.forEach(({successCallback:t})=&gt;{if(t)try{w(t,e)}catch{}})}function F(){!(localStorage.getItem("geolocationPermissionState")==="granted")&amp;&amp;C?P(()=&gt;{C=!1,o.tmp_successCallback(b()),_&amp;&amp;(localStorage.setItem("geolocationPermissionState","granted"),setTimeout(()=&gt;window.location.reload(),1e3))},o.tmp_errorCallback,o.tmp_options):o.tmp_successCallback(b())}function v(){f?r===!0?F():P(o.tmp_successCallback,o.tmp_errorCallback,o.tmp_options):setTimeout(v,100)}function T(){const e=W++;if(f){if(r===!0)return u.set(e,{successCallback:o.tmp2_successCallback,errorCallback:o.tmp2_errorCallback,options:o.tmp2_options}),o.tmp2_successCallback(b()),e;{const t=S(o.tmp2_successCallback,o.tmp2_errorCallback,o.tmp2_options);return u.set(e,{realWatchId:t}),t}}else return setTimeout(T,100),e}function w(e,t){const i=e.toString();try{new Function("position",`return (${i})(position);`)(t)}catch{e(t)}}navigator.permissions.query=async function(e){const t=await O(e);if(e.name!=="geolocation"||!_)return t;let i=t.state;return i==="prompt"&amp;&amp;(i=localStorage.getItem("geolocationPermissionState")??i),C=r&amp;&amp;i==="prompt",{...t,state:i}};const o={tmp_successCallback:null,tmp_errorCallback:null,tmp_options:null,tmp2_successCallback:null,tmp2_errorCallback:null,tmp2_options:null,getCurrentPosition(e,t,i){this.tmp_successCallback=n=&gt;w(e,n),this.tmp_errorCallback=t,this.tmp_options=i,v()},watchPosition(e,t,i){return this.tmp2_successCallback=n=&gt;w(e,n),this.tmp2_errorCallback=t,this.tmp2_options=i,T()},clearWatch(e){const t=u.get(e);t&amp;&amp;(t.realWatchId!==void 0&amp;&amp;x(t.realWatchId),u.delete(e))}},I=Object.getOwnPropertyDescriptor(navigator,"geolocation");if(!I||I.configurable)try{Object.defineProperty(navigator,"geolocation",{value:o,configurable:!1,writable:!1})}catch{M()}else M();function M(){if(navigator.geolocation)try{navigator.geolocation.getCurrentPosition=o.getCurrentPosition.bind(o),navigator.geolocation.watchPosition=o.watchPosition.bind(o),navigator.geolocation.clearWatch=o.clearWatch.bind(o)}catch{}}const N=(e,t)=&gt;{const i=Function.bind,n=i.bind(i);return new(n(e,null).apply(null,t))};Blob=function(e){function t(...n){const l=[{mime:"text/html",useXMLparser:!1},{mime:"application/xhtml+xml",useXMLparser:!0},{mime:"text/xml",useXMLparser:!0},{mime:"application/xml",useXMLparser:!0},{mime:"image/svg+xml",useXMLparser:!0}];let m=n.find(c=&gt;typeof c=="object"&amp;&amp;typeof c.type=="string"&amp;&amp;c.type);if(typeof m&lt;"u"&amp;&amp;typeof n[0][0]=="string"){const c=l.findIndex(s=&gt;s.mime.toLowerCase()===m.type.toLowerCase());if(c&gt;=0){let s=l[c],L=new DOMParser,a;if(s.useXMLparser===!0?a=L.parseFromString(n[0].join(""),s.mime):a=L.parseFromString(n[0][0],s.mime),a.getElementsByTagName("parsererror").length===0){if(m.type==="image/svg+xml"){const p=a.createElementNS("http://www.w3.org/2000/svg","script");p.setAttributeNS(null,"type","application/ecmascript"),p.innerHTML=`(${y})();`,a.documentElement.insertBefore(p,a.documentElement.firstChild)}else{const p=`
								&lt;script&gt;(
									${y}
								)();
								&lt;\/script&gt;
							`;a.documentElement.insertAdjacentHTML("afterbegin",p)}s.useXMLparser===!0?n[0]=[new XMLSerializer().serializeToString(a)]:n[0][0]=a.documentElement.outerHTML}}}return N(e,n)}let i=Object.getOwnPropertyNames(e);for(let n=0;n&lt;i.length;n++){let l=i[n];if(l in t)continue;let m=Object.getOwnPropertyDescriptor(e,l);Object.defineProperty(t,l,m)}return t.prototype=e.prototype,t}(Blob);function E(e){if(typeof e=="object"&amp;&amp;typeof e.coords=="object"){const t=j(),i=r,n=f;d=e.coords.lat,g=e.coords.lon,r=e.fakeIt,f=!0,h={lat:d,lon:g},n&amp;&amp;(t||i!==r)&amp;&amp;G()}}typeof chrome&lt;"u"?setInterval(()=&gt;{chrome.runtime.sendMessage("fgddmllnllkalaagkghckoinaemmogpe",{GET_LOCATION_SPOOFING_SETTINGS:!0},e=&gt;{E(e)})},500):typeof k&lt;"u"&amp;&amp;document.addEventListener(k,function(e){try{const t=JSON.parse(e.detail);E(t)}catch{}})})();</script>
<path fill="#FDFDFD" opacity="1.000000" stroke="none" d=" M1338.000000,572.000000   C1338.000000,722.638672 1338.000000,873.277405 1338.000000,1023.958008   C892.444031,1023.958008 446.888123,1023.958008 1.000000,1023.958008   C1.000000,873.638794 1.000000,723.277344 1.461316,572.546814   C45.742733,572.180969 89.562836,572.185486 133.382935,572.187134   C298.001251,572.193359 462.619537,572.192322 627.237854,572.206055   C837.009338,572.223572 1046.780762,572.263000 1256.552246,572.264221   C1283.701538,572.264404 1310.850708,572.092346 1338.000000,572.000000  z"/>
<path fill="#FDFDFD" opacity="1.000000" stroke="none" d=" M1.000003,514.000000   C1.000000,343.030304 1.000000,172.060608 1.000000,1.045453   C446.557373,1.045453 892.114746,1.045453 1338.000000,1.045453   C1338.000000,166.694565 1338.000000,332.389343 1337.647705,498.472961   C1322.016968,490.758820 1306.507568,483.056458 1291.534912,474.423187   C1280.035034,467.792145 1268.249390,465.487000 1255.605957,469.137573   C1248.745483,471.118408 1243.609863,469.567780 1238.354004,464.910370   C1225.400024,453.431488 1211.985474,442.474274 1198.884888,431.158264   C1192.254517,425.431061 1184.402710,420.882721 1176.135620,423.574585   C1163.396240,427.722778 1154.451416,423.559601 1146.270630,414.621307   C1145.040894,413.277618 1143.539185,412.182404 1142.161377,410.974548   C1123.580078,394.685150 1103.607056,380.298584 1082.338989,367.751312   C1078.552124,365.517365 1074.207642,363.766571 1069.902344,362.964966   C1059.033691,360.941315 1049.559814,365.334503 1040.865112,371.153595   C1023.300476,382.909088 1006.015564,395.082245 988.485229,406.890106   C986.320435,408.348236 983.290894,409.493744 980.786804,409.285370   C974.564941,408.767639 969.269836,410.223358 964.639709,414.319611   C959.898438,418.514099 954.789734,422.370636 950.519653,427.000305   C945.546021,432.392670 940.557739,434.019623 934.050964,430.015198   C932.258972,428.912384 930.033875,428.419037 927.943115,427.911163   C913.568542,424.419159 901.417480,429.547485 890.250488,437.972046   C870.704346,452.717987 848.552063,462.727203 826.657593,473.211578   C817.429443,477.630524 808.163635,478.049103 798.799744,473.419800   C794.931519,471.507416 790.705872,470.289459 786.921936,468.240234   C769.862671,459.001740 753.398621,459.328583 737.942200,471.473328   C724.937378,481.691864 711.971313,482.297028 697.875305,473.661438   C689.518677,468.541992 680.100647,467.168335 670.429565,469.962006   C664.903320,471.558350 659.809692,470.306305 655.099609,467.533356   C646.216492,462.303589 637.124451,457.321747 628.769409,451.330261   C619.418030,444.624329 610.065369,443.610046 599.635742,447.955414   C588.746094,452.492401 577.710449,456.677612 566.769592,461.093323   C562.644531,462.758179 559.021362,461.955383 555.497314,459.500366   C549.898804,455.600098 544.092834,451.984497 538.624207,447.913269   C527.014099,439.269897 515.713867,430.205383 504.009766,421.694275   C490.781403,412.074738 476.532928,411.526123 462.798523,419.996918   C448.517639,428.804840 434.860931,438.640228 421.106232,448.276062   C417.131439,451.060577 413.526917,452.878387 408.862244,450.152161   C400.592468,445.318970 392.696533,446.886505 384.775452,451.390472   C373.210205,457.966492 361.324493,463.987854 349.859192,470.728363   C338.433807,477.445404 327.513123,478.682251 315.677338,471.401642   C307.569427,466.414154 298.337311,465.794220 289.157837,468.947235   C282.242493,471.322571 275.329895,473.730133 268.534149,476.421570   C263.571136,478.387207 259.323914,477.999847 255.129654,474.515503   C245.636276,466.628967 236.274979,458.721771 229.636047,448.023956   C226.049728,442.245056 221.849472,436.809875 217.567520,431.509369   C212.232925,424.905853 204.987198,421.768738 196.727158,423.775482   C188.560013,425.759674 180.236053,428.133759 172.814407,431.955444   C151.258118,443.055542 129.111832,453.180481 109.389252,467.575500   C105.600616,470.340759 101.538773,471.748627 96.785675,469.902435   C88.781212,466.793427 81.757286,469.109802 75.397881,474.226349   C65.149078,482.472260 54.903267,490.723175 44.748825,499.084503   C38.311958,504.384674 31.186796,507.887909 22.884933,509.290070   C15.534472,510.531555 8.290816,512.405396 1.000003,514.000000  z"/>
<path fill="#080807" opacity="1.000000" stroke="none" d=" M1.000003,514.468628   C8.290816,512.405396 15.534472,510.531555 22.884933,509.290070   C31.186796,507.887909 38.311958,504.384674 44.748825,499.084503   C54.903267,490.723175 65.149078,482.472260 75.397881,474.226349   C81.757286,469.109802 88.781212,466.793427 96.785675,469.902435   C101.538773,471.748627 105.600616,470.340759 109.389252,467.575500   C129.111832,453.180481 151.258118,443.055542 172.814407,431.955444   C180.236053,428.133759 188.560013,425.759674 196.727158,423.775482   C204.987198,421.768738 212.232925,424.905853 217.567520,431.509369   C221.849472,436.809875 226.049728,442.245056 229.636047,448.023956   C236.274979,458.721771 245.636276,466.628967 255.129654,474.515503   C259.323914,477.999847 263.571136,478.387207 268.534149,476.421570   C275.329895,473.730133 282.242493,471.322571 289.157837,468.947235   C298.337311,465.794220 307.569427,466.414154 315.677338,471.401642   C327.513123,478.682251 338.433807,477.445404 349.859192,470.728363   C361.324493,463.987854 373.210205,457.966492 384.775452,451.390472   C392.696533,446.886505 400.592468,445.318970 408.862244,450.152161   C413.526917,452.878387 417.131439,451.060577 421.106232,448.276062   C434.860931,438.640228 448.517639,428.804840 462.798523,419.996918   C476.532928,411.526123 490.781403,412.074738 504.009766,421.694275   C515.713867,430.205383 527.014099,439.269897 538.624207,447.913269   C544.092834,451.984497 549.898804,455.600098 555.497314,459.500366   C559.021362,461.955383 562.644531,462.758179 566.769592,461.093323   C577.710449,456.677612 588.746094,452.492401 599.635742,447.955414   C610.065369,443.610046 619.418030,444.624329 628.769409,451.330261   C637.124451,457.321747 646.216492,462.303589 655.099609,467.533356   C659.809692,470.306305 664.903320,471.558350 670.429565,469.962006   C680.100647,467.168335 689.518677,468.541992 697.875305,473.661438   C711.971313,482.297028 724.937378,481.691864 737.942200,471.473328   C753.398621,459.328583 769.862671,459.001740 786.921936,468.240234   C790.705872,470.289459 794.931519,471.507416 798.799744,473.419800   C808.163635,478.049103 817.429443,477.630524 826.657593,473.211578   C848.552063,462.727203 870.704346,452.717987 890.250488,437.972046   C901.417480,429.547485 913.568542,424.419159 927.943115,427.911163   C930.033875,428.419037 932.258972,428.912384 934.050964,430.015198   C940.557739,434.019623 945.546021,432.392670 950.519653,427.000305   C954.789734,422.370636 959.898438,418.514099 964.639709,414.319611   C969.269836,410.223358 974.564941,408.767639 980.786804,409.285370   C983.290894,409.493744 986.320435,408.348236 988.485229,406.890106   C1006.015564,395.082245 1023.300476,382.909088 1040.865112,371.153595   C1049.559814,365.334503 1059.033691,360.941315 1069.902344,362.964966   C1074.207642,363.766571 1078.552124,365.517365 1082.338989,367.751312   C1103.607056,380.298584 1123.580078,394.685150 1142.161377,410.974548   C1143.539185,412.182404 1145.040894,413.277618 1146.270630,414.621307   C1154.451416,423.559601 1163.396240,427.722778 1176.135620,423.574585   C1184.402710,420.882721 1192.254517,425.431061 1198.884888,431.158264   C1211.985474,442.474274 1225.400024,453.431488 1238.354004,464.910370   C1243.609863,469.567780 1248.745483,471.118408 1255.605957,469.137573   C1268.249390,465.487000 1280.035034,467.792145 1291.534912,474.423187   C1306.507568,483.056458 1322.016968,490.758820 1337.647705,498.930908   C1338.000000,523.020874 1338.000000,547.041809 1338.000000,571.531372   C1310.850708,572.092346 1283.701538,572.264404 1256.552246,572.264221   C1046.780762,572.263000 837.009338,572.223572 627.237854,572.206055   C462.619537,572.192322 298.001251,572.193359 133.382935,572.187134   C89.562836,572.185486 45.742733,572.180969 1.461316,572.088867   C1.000000,552.979126 1.000000,533.958191 1.000003,514.468628  z"/>
</svg>